<svg width="10" height="10" viewBox="0 0 10 10" fill="none" xmlns="http://www.w3.org/2000/svg">
<path d="M4.52447 0.605692C4.67415 0.145037 5.32585 0.145036 5.47553 0.605691L6.23483 2.94257C6.30176 3.14858 6.49374 3.28806 6.71036 3.28806H9.1675C9.65186 3.28806 9.85325 3.90787 9.46139 4.19257L7.47352 5.63684C7.29828 5.76417 7.22495 5.98985 7.29188 6.19586L8.05118 8.53274C8.20086 8.9934 7.67362 9.37646 7.28176 9.09176L5.29389 7.64749C5.11865 7.52017 4.88135 7.52017 4.70611 7.64749L2.71824 9.09176C2.32638 9.37646 1.79914 8.9934 1.94882 8.53274L2.70812 6.19586C2.77505 5.98985 2.70172 5.76417 2.52648 5.63684L0.538611 4.19257C0.146754 3.90787 0.348141 3.28806 0.832503 3.28806H3.28964C3.50626 3.28806 3.69824 3.14858 3.76517 2.94257L4.52447 0.605692Z" fill="white"/>
</svg>
